<?xml version="1.0" encoding="utf-8"?>
<!-- Generator: Adobe Illustrator 23.0.2, SVG Export Plug-In . SVG Version: 6.00 Build 0)  -->
<svg version="1.1" id="Layer_1" xmlns="http://www.w3.org/2000/svg" xmlns:xlink="http://www.w3.org/1999/xlink" x="0px" y="0px"
	 viewBox="0 0 386.7 287.2" style="enable-background:new 0 0 386.7 287.2;" xml:space="preserve">
<style type="text/css">
	.st0{fill:#16477F;stroke:#4CA8DD;stroke-width:0.5448;stroke-miterlimit:10;}
	.st1{fill:none;stroke:#4CA8DD;stroke-width:1.4173;stroke-linejoin:bevel;stroke-miterlimit:10;}
	.st2{fill:none;stroke:#FFFFFF;stroke-width:1.0897;stroke-miterlimit:10;}
	.st3{opacity:0.8;fill:url(#SVGID_1_);enable-background:new    ;}
	.st4{fill:none;stroke:#4CA8DD;stroke-width:0.5448;stroke-linejoin:bevel;stroke-miterlimit:10;}
	.st5{opacity:0.6;}
	.st6{fill:url(#SVGID_2_);}
	.st7{fill:url(#SVGID_3_);}
	.st8{opacity:0.8;fill:url(#SVGID_4_);enable-background:new    ;}
	.st9{fill:url(#SVGID_5_);}
	.st10{opacity:0.8;fill:url(#SVGID_6_);enable-background:new    ;}
	.st11{fill:url(#SVGID_7_);}
	.st12{opacity:0.8;fill:url(#SVGID_8_);enable-background:new    ;}
	.st13{fill:url(#SVGID_9_);}
	.st14{opacity:0.8;fill:url(#SVGID_10_);enable-background:new    ;}
	.st15{opacity:0.8;fill:url(#SVGID_11_);enable-background:new    ;}
	.st16{fill:url(#SVGID_12_);}
	.st17{opacity:0.8;fill:url(#SVGID_13_);enable-background:new    ;}
	.st18{opacity:0.1;fill:#FFFFFF;stroke:#4CA8DD;stroke-width:0.5448;stroke-miterlimit:10;enable-background:new    ;}
	.st19{fill:#FFFFFF;}
	.st20{fill:none;}
	.st21{fill:none;stroke:#EFE823;stroke-width:0.5448;stroke-linejoin:bevel;stroke-miterlimit:10;}
	.st22{fill:none;stroke:#E83546;stroke-width:0.5448;stroke-linejoin:bevel;stroke-miterlimit:10;}
	.st23{fill:none;stroke:#44BA91;stroke-width:0.5448;stroke-linejoin:bevel;stroke-miterlimit:10;}
	.st24{fill:#44BA91;}
	.st25{fill:#EFE823;}
	.st26{fill:#E83546;}
	.st27{fill:#4CA8DD;}
	.st28{opacity:0.8;fill:url(#SVGID_14_);enable-background:new    ;}
	.st29{opacity:0.8;fill:url(#SVGID_15_);enable-background:new    ;}
	.st30{opacity:0.8;fill:url(#SVGID_16_);enable-background:new    ;}
	.st31{fill:url(#SVGID_17_);}
	.st32{opacity:0.8;fill:url(#SVGID_18_);enable-background:new    ;}
	.st33{opacity:0.8;fill:url(#SVGID_19_);enable-background:new    ;}
	.st34{opacity:0.8;fill:url(#SVGID_20_);enable-background:new    ;}
	.st35{fill:#E9F0F6;}
	.st36{fill:#CAE4F2;}
	.st37{fill:#9BC9EC;}
	.st38{fill:#1F83C6;}
	.st39{fill:#19497B;}
	.st40{fill:#2391CF;}
	.st41{opacity:0.1;fill:#FFFFFF;enable-background:new    ;}
	.st42{opacity:0.8;fill:url(#SVGID_21_);enable-background:new    ;}
	.st43{opacity:0.6;fill:url(#SVGID_22_);enable-background:new    ;}
	.st44{opacity:0.6;fill:url(#SVGID_23_);enable-background:new    ;}
	.st45{opacity:0.6;fill:url(#SVGID_24_);enable-background:new    ;}
	.st46{opacity:0.8;fill:url(#SVGID_25_);enable-background:new    ;}
	.st47{opacity:0.6;fill:url(#SVGID_26_);enable-background:new    ;}
	.st48{fill:url(#SVGID_27_);}
	.st49{fill:url(#SVGID_28_);}
	.st50{fill:url(#SVGID_29_);}
	.st51{fill:url(#SVGID_30_);}
</style>
<polygon class="st0" points="310.2,231.3 264.1,204.8 335.1,162.9 381.9,189.9 "/>
<polygon class="st0" points="255.4,244.9 192.5,281.2 148.5,255.8 211.4,219.5 "/>
<polygon class="st0" points="131.5,208.5 131.5,190.8 59.7,149.4 16.2,174.5 16.2,192.2 5.9,198.1 59.7,229.2 84.3,215 112.6,231.3 
	141.8,214.5 "/>
<line class="st1" x1="162.4" y1="111.4" x2="180.3" y2="177.7"/>
<line class="st1" x1="213.9" y1="197.8" x2="162.4" y2="72.2"/>
<line class="st1" x1="99.4" y1="81.5" x2="132.1" y2="190.8"/>
<line class="st1" x1="118.8" y1="70.3" x2="84.3" y2="185.9"/>
<line class="st1" x1="195.6" y1="81.5" x2="245.1" y2="179.8"/>
<line class="st1" x1="241.5" y1="101.4" x2="211.4" y2="161"/>
<line class="st1" x1="314.5" y1="81.5" x2="371.6" y2="165.7"/>
<line class="st1" x1="361.6" y1="53.9" x2="336.3" y2="145.5"/>
<line class="st1" x1="328.1" y1="34.7" x2="325.6" y2="185.7"/>
<line class="st1" x1="283.7" y1="63.7" x2="305" y2="157.9"/>
<line class="st1" x1="131.5" y1="214.5" x2="191.9" y2="232.5"/>
<line class="st1" x1="112.6" y1="225.4" x2="193.7" y2="274.7"/>
<line class="st1" x1="193.1" y1="275.3" x2="274.3" y2="205.2"/>
<line class="st1" x1="245.1" y1="244.3" x2="310.2" y2="231.3"/>
<line class="st1" x1="193.1" y1="232.5" x2="310.2" y2="231.3"/>
<line class="st1" x1="245.1" y1="179.8" x2="289.7" y2="165.7"/>
<line class="st1" x1="130.9" y1="191.2" x2="158.8" y2="213"/>
<path class="st2" d="M186,172.8"/>
<linearGradient id="SVGID_1_" gradientUnits="userSpaceOnUse" x1="236.1187" y1="740.895" x2="287.3267" y2="740.895" gradientTransform="matrix(0.6581 0 0 0.6581 3.4103 -243.454)">
	<stop  offset="0" style="stop-color:#4CA8DD;stop-opacity:0"/>
	<stop  offset="1" style="stop-color:#4CA8DD"/>
</linearGradient>
<path class="st3" d="M158.8,213c0,17.6,0,39.8,0,42.8l33.7,19.4v-42.8L158.8,213z"/>
<path class="st4" d="M245.1,238.9v-59.1l-33.7-19.4l-31.1,18v22.3l-21.4,12.4l0,0c0,13,0,28.4,0,36.8l-10.3,5.9l44,25.4l62.9-36.3
	L245.1,238.9z"/>
<path class="st4" d="M158.8,213c0,17.6,0,39.8,0,42.8l33.7,19.4v-42.8L158.8,213z"/>
<g class="st5">
	
		<linearGradient id="SVGID_2_" gradientUnits="userSpaceOnUse" x1="236.1187" y1="686.1921" x2="316.0457" y2="686.1921" gradientTransform="matrix(0.6581 0 0 0.6581 3.4103 -243.454)">
		<stop  offset="0" style="stop-color:#4CA8DD;stop-opacity:0.75"/>
		<stop  offset="1" style="stop-color:#4CA8DD;stop-opacity:0"/>
	</linearGradient>
	<polygon class="st6" points="180.3,178.4 180.3,200.6 158.8,213 158.8,255.8 211.4,225.4 211.4,160.4 	"/>
</g>
<g class="st5">
	
		<linearGradient id="SVGID_3_" gradientUnits="userSpaceOnUse" x1="287.3267" y1="715.6709" x2="367.2538" y2="715.6709" gradientTransform="matrix(0.6581 0 0 0.6581 3.4103 -243.454)">
		<stop  offset="0" style="stop-color:#4CA8DD;stop-opacity:0.75"/>
		<stop  offset="1" style="stop-color:#4CA8DD;stop-opacity:0"/>
	</linearGradient>
	<polygon class="st7" points="213.9,197.8 213.9,220.1 192.5,232.5 192.5,275.2 245.1,244.9 245.1,179.8 	"/>
</g>
<linearGradient id="SVGID_4_" gradientUnits="userSpaceOnUse" x1="268.7293" y1="672.7443" x2="319.8954" y2="672.7443" gradientTransform="matrix(0.6581 0 0 0.6581 3.4103 -243.454)">
	<stop  offset="0" style="stop-color:#4CA8DD;stop-opacity:0"/>
	<stop  offset="1" style="stop-color:#4CA8DD"/>
</linearGradient>
<polygon class="st8" points="180.3,200.6 213.9,220.1 213.9,197.8 180.3,178.4 "/>
<linearGradient id="SVGID_5_" gradientUnits="userSpaceOnUse" x1="266.5702" y1="691.8903" x2="274.3934" y2="691.8903" gradientTransform="matrix(0.6581 0 0 0.6581 3.4103 -243.454)">
	<stop  offset="0" style="stop-color:#4CA8DD;stop-opacity:0.75"/>
	<stop  offset="1" style="stop-color:#4CA8DD;stop-opacity:0"/>
</linearGradient>
<polygon class="st9" points="178.8,210.3 184,207.4 184,213.3 178.8,216.3 "/>
<linearGradient id="SVGID_6_" gradientUnits="userSpaceOnUse" x1="258.7471" y1="691.8903" x2="266.5702" y2="691.8903" gradientTransform="matrix(0.6581 0 0 0.6581 3.4103 -243.454)">
	<stop  offset="0" style="stop-color:#4CA8DD;stop-opacity:0"/>
	<stop  offset="1" style="stop-color:#4CA8DD"/>
</linearGradient>
<polygon class="st10" points="178.8,210.3 173.7,207.4 173.7,213.3 178.8,216.3 "/>
<linearGradient id="SVGID_7_" gradientUnits="userSpaceOnUse" x1="290.039" y1="705.4141" x2="297.8615" y2="705.4141" gradientTransform="matrix(0.6581 0 0 0.6581 3.4103 -243.454)">
	<stop  offset="0" style="stop-color:#4CA8DD;stop-opacity:0.75"/>
	<stop  offset="1" style="stop-color:#4CA8DD;stop-opacity:0"/>
</linearGradient>
<polygon class="st11" points="194.3,219.3 199.4,216.3 199.4,222.2 194.3,225.2 "/>
<linearGradient id="SVGID_8_" gradientUnits="userSpaceOnUse" x1="282.2159" y1="705.4141" x2="290.039" y2="705.4141" gradientTransform="matrix(0.6581 0 0 0.6581 3.4103 -243.454)">
	<stop  offset="0" style="stop-color:#4CA8DD;stop-opacity:0"/>
	<stop  offset="1" style="stop-color:#4CA8DD"/>
</linearGradient>
<polygon class="st12" points="194.3,219.3 189.1,216.3 189.1,222.2 194.3,225.2 "/>
<linearGradient id="SVGID_9_" gradientUnits="userSpaceOnUse" x1="307.5364" y1="634.3762" x2="315.3595" y2="634.3762" gradientTransform="matrix(0.6581 0 0 0.6581 3.4103 -243.454)">
	<stop  offset="0" style="stop-color:#4CA8DD;stop-opacity:0.75"/>
	<stop  offset="1" style="stop-color:#4CA8DD;stop-opacity:0"/>
</linearGradient>
<polygon class="st13" points="205.8,172.5 210.9,169.5 210.9,175.5 205.8,178.5 "/>
<linearGradient id="SVGID_10_" gradientUnits="userSpaceOnUse" x1="299.7134" y1="634.3762" x2="307.5359" y2="634.3762" gradientTransform="matrix(0.6581 0 0 0.6581 3.4103 -243.454)">
	<stop  offset="0" style="stop-color:#4CA8DD;stop-opacity:0"/>
	<stop  offset="1" style="stop-color:#4CA8DD"/>
</linearGradient>
<polygon class="st14" points="205.8,172.5 200.7,169.5 200.7,175.5 205.8,178.5 "/>
<linearGradient id="SVGID_11_" gradientUnits="userSpaceOnUse" x1="316.0457" y1="677.9106" x2="367.2538" y2="677.9106" gradientTransform="matrix(0.6581 0 0 0.6581 3.4103 -243.454)">
	<stop  offset="0" style="stop-color:#4CA8DD;stop-opacity:0"/>
	<stop  offset="1" style="stop-color:#4CA8DD"/>
</linearGradient>
<polygon class="st15" points="211.4,160.4 245.1,179.8 245.1,244.9 211.4,225.4 "/>
<linearGradient id="SVGID_12_" gradientUnits="userSpaceOnUse" x1="331.0047" y1="647.976" x2="338.8278" y2="647.976" gradientTransform="matrix(0.6581 0 0 0.6581 3.4103 -243.454)">
	<stop  offset="0" style="stop-color:#4CA8DD;stop-opacity:0.75"/>
	<stop  offset="1" style="stop-color:#4CA8DD;stop-opacity:0"/>
</linearGradient>
<polygon class="st16" points="221.2,181.4 226.4,178.5 226.4,184.4 221.2,187.4 "/>
<linearGradient id="SVGID_13_" gradientUnits="userSpaceOnUse" x1="323.1875" y1="647.976" x2="331.0099" y2="647.976" gradientTransform="matrix(0.6581 0 0 0.6581 3.4103 -243.454)">
	<stop  offset="0" style="stop-color:#4CA8DD;stop-opacity:0"/>
	<stop  offset="1" style="stop-color:#4CA8DD"/>
</linearGradient>
<polygon class="st17" points="221.2,181.4 216.1,178.5 216.1,184.4 221.2,187.4 "/>
<g>
	<polygon class="st4" points="180.3,178.4 180.3,200.6 158.8,213 158.8,255.8 211.4,225.4 211.4,160.4 	"/>
</g>
<g>
	<polygon class="st4" points="213.9,197.8 213.9,220.1 192.5,232.5 192.5,275.2 245.1,244.9 245.1,179.8 	"/>
</g>
<polygon class="st4" points="211.4,160.4 245.1,179.8 245.1,244.9 211.4,225.4 "/>
<polygon class="st4" points="180.3,200.6 213.9,220.1 213.9,197.8 180.3,178.4 "/>
<polygon class="st18" points="178.8,204.4 184,207.4 178.8,210.3 173.7,207.4 "/>
<polygon class="st18" points="194.3,213.3 199.4,216.3 194.3,219.3 189.1,216.3 "/>
<polygon class="st18" points="205.8,166.6 210.9,169.5 205.8,172.5 200.7,169.5 "/>
<polygon class="st18" points="221.2,175.5 226.4,178.5 221.2,181.4 216.1,178.5 "/>
<path class="st19" d="M158.8,255.2c0.3,0,0.6,0.3,0.6,0.6c0,0.3-0.3,0.6-0.6,0.6s-0.6-0.3-0.6-0.6
	C158.3,255.5,158.5,255.2,158.8,255.2z"/>
<path class="st19" d="M158.8,212.4c0.3,0,0.6,0.3,0.6,0.6s-0.3,0.6-0.6,0.6s-0.6-0.3-0.6-0.6C158.3,212.7,158.5,212.4,158.8,212.4z"
	/>
<path class="st19" d="M192.5,274.7c0.3,0,0.6,0.3,0.6,0.6c0,0.3-0.3,0.6-0.6,0.6s-0.6-0.3-0.6-0.6
	C191.9,274.9,192.2,274.7,192.5,274.7z"/>
<path class="st19" d="M192.5,231.9c0.3,0,0.6,0.3,0.6,0.6s-0.3,0.6-0.6,0.6s-0.6-0.3-0.6-0.6C191.9,232.1,192.2,231.9,192.5,231.9z"
	/>
<path class="st19" d="M213.9,219.5c0.3,0,0.6,0.3,0.6,0.6s-0.3,0.6-0.6,0.6s-0.6-0.3-0.6-0.6C213.4,219.8,213.6,219.5,213.9,219.5z"
	/>
<path class="st19" d="M180.3,200.1c0.3,0,0.6,0.3,0.6,0.6s-0.3,0.6-0.6,0.6s-0.6-0.3-0.6-0.6C179.7,200.3,180,200.1,180.3,200.1z"/>
<path class="st19" d="M213.9,197.2c0.3,0,0.6,0.3,0.6,0.6s-0.3,0.6-0.6,0.6s-0.6-0.3-0.6-0.6C213.4,197.4,213.6,197.2,213.9,197.2z"
	/>
<path class="st19" d="M180.3,177.7c0.3,0,0.6,0.3,0.6,0.6s-0.3,0.6-0.6,0.6s-0.6-0.3-0.6-0.6S180,177.7,180.3,177.7z"/>
<circle class="st19" cx="245.1" cy="179.8" r="0.6"/>
<path class="st19" d="M211.4,159.8c0.3,0,0.6,0.3,0.6,0.6s-0.3,0.6-0.6,0.6s-0.6-0.3-0.6-0.6C210.8,160.1,211.1,159.8,211.4,159.8z"
	/>
<circle class="st19" cx="245.1" cy="244.9" r="0.6"/>
<circle class="st19" cx="211.4" cy="225.4" r="0.6"/>
<polygon class="st20" points="158.8,255.8 192.5,275.2 245.1,244.9 211.4,225.4 "/>
<polygon class="st21" points="207.1,254.4 199.9,250.2 192.7,254.4 199.9,258.6 "/>
<polygon class="st22" points="207.1,254.4 199.9,258.6 207.1,262.7 214.3,258.5 "/>
<polygon class="st22" points="214.3,258.5 221.6,254.3 214.4,250.2 207.1,254.4 "/>
<polygon class="st23" points="178.2,254.5 170.9,258.7 178.1,262.8 185.4,258.6 "/>
<polygon class="st22" points="221.6,254.3 228.9,250.1 221.7,246 214.4,250.2 "/>
<polygon class="st23" points="192.6,262.8 185.3,267 192.5,271.1 199.8,266.9 "/>
<polygon class="st4" points="214.5,241.8 207.3,237.7 200,241.9 207.2,246 "/>
<polygon class="st22" points="228.9,250.1 236.2,245.9 229,241.8 221.7,246 "/>
<polygon class="st4" points="221.8,237.6 214.6,233.5 207.3,237.7 214.5,241.8 "/>
<polygon class="st4" points="207.2,246 200,241.9 192.8,246.1 199.9,250.2 "/>
<polygon class="st23" points="185.4,258.6 178.1,262.8 185.3,267 192.6,262.8 "/>
<polygon class="st21" points="199.9,250.2 192.8,246.1 185.5,250.3 192.7,254.4 "/>
<path class="st24" d="M170.9,258.1c0.3,0,0.6,0.3,0.6,0.6c0,0.3-0.3,0.6-0.6,0.6s-0.6-0.3-0.6-0.6
	C170.4,258.4,170.6,258.1,170.9,258.1z"/>
<path class="st24" d="M185.4,258.1c0.3,0,0.6,0.3,0.6,0.6c0,0.3-0.3,0.6-0.6,0.6s-0.6-0.3-0.6-0.6
	C184.8,258.3,185.1,258.1,185.4,258.1z"/>
<path class="st24" d="M178.2,253.9c0.3,0,0.6,0.3,0.6,0.6c0,0.3-0.3,0.6-0.6,0.6s-0.6-0.3-0.6-0.6
	C177.6,254.2,177.9,253.9,178.2,253.9z"/>
<path class="st24" d="M178.1,262.3c0.3,0,0.6,0.3,0.6,0.6c0,0.3-0.3,0.6-0.6,0.6s-0.6-0.3-0.6-0.6
	C177.6,262.5,177.8,262.3,178.1,262.3z"/>
<path class="st24" d="M185.3,266.4c0.3,0,0.6,0.3,0.6,0.6c0,0.3-0.3,0.6-0.6,0.6s-0.6-0.3-0.6-0.6S185,266.4,185.3,266.4z"/>
<path class="st24" d="M199.8,266.4c0.3,0,0.6,0.3,0.6,0.6c0,0.3-0.3,0.6-0.6,0.6s-0.6-0.3-0.6-0.6
	C199.2,266.6,199.5,266.4,199.8,266.4z"/>
<path class="st24" d="M192.6,262.2c0.3,0,0.6,0.3,0.6,0.6c0,0.3-0.3,0.6-0.6,0.6s-0.6-0.3-0.6-0.6S192.3,262.2,192.6,262.2z"/>
<path class="st24" d="M192.5,270.6c0.3,0,0.6,0.3,0.6,0.6c0,0.3-0.3,0.6-0.6,0.6s-0.6-0.3-0.6-0.6
	C191.9,270.8,192.2,270.6,192.5,270.6z"/>
<path class="st25" d="M185.4,249.6c0.3,0,0.6,0.3,0.6,0.6c0,0.3-0.3,0.6-0.6,0.6s-0.6-0.3-0.6-0.6
	C184.9,249.9,185.1,249.6,185.4,249.6z"/>
<path class="st25" d="M199.9,249.6c0.3,0,0.6,0.3,0.6,0.6c0,0.3-0.3,0.6-0.6,0.6s-0.6-0.3-0.6-0.6
	C199.3,249.8,199.6,249.6,199.9,249.6z"/>
<path class="st25" d="M192.7,245.4c0.3,0,0.6,0.3,0.6,0.6c0,0.3-0.3,0.6-0.6,0.6s-0.6-0.3-0.6-0.6
	C192.1,245.7,192.4,245.4,192.7,245.4z"/>
<circle class="st25" cx="192.6" cy="254.4" r="0.6"/>
<path class="st26" d="M199.8,257.9c0.3,0,0.6,0.3,0.6,0.6c0,0.3-0.3,0.6-0.6,0.6s-0.6-0.3-0.6-0.6
	C199.3,258.2,199.5,257.9,199.8,257.9z"/>
<path class="st26" d="M214.3,257.9c0.3,0,0.6,0.3,0.6,0.6c0,0.3-0.3,0.6-0.6,0.6s-0.6-0.3-0.6-0.6
	C213.7,258.1,214,257.9,214.3,257.9z"/>
<path class="st26" d="M207.1,253.7c0.3,0,0.6,0.3,0.6,0.6s-0.3,0.6-0.6,0.6s-0.6-0.3-0.6-0.6S206.8,253.7,207.1,253.7z"/>
<path class="st26" d="M207,262.1c0.3,0,0.6,0.3,0.6,0.6c0,0.3-0.3,0.6-0.6,0.6s-0.6-0.3-0.6-0.6C206.4,262.3,206.7,262.1,207,262.1z
	"/>
<path class="st27" d="M199.9,241.3c0.3,0,0.6,0.3,0.6,0.6s-0.3,0.6-0.6,0.6s-0.6-0.3-0.6-0.6C199.4,241.5,199.6,241.3,199.9,241.3z"
	/>
<path class="st27" d="M214.4,241.2c0.3,0,0.6,0.3,0.6,0.6s-0.3,0.6-0.6,0.6s-0.6-0.3-0.6-0.6C213.8,241.5,214.1,241.2,214.4,241.2z"
	/>
<path class="st27" d="M207.2,237.1c0.3,0,0.6,0.3,0.6,0.6s-0.3,0.6-0.6,0.6s-0.6-0.3-0.6-0.6C206.7,237.3,206.9,237.1,207.2,237.1z"
	/>
<path class="st27" d="M207.1,245.4c0.3,0,0.6,0.3,0.6,0.6c0,0.3-0.3,0.6-0.6,0.6s-0.6-0.3-0.6-0.6
	C206.6,245.7,206.8,245.4,207.1,245.4z"/>
<path class="st26" d="M214.3,249.6c0.3,0,0.6,0.3,0.6,0.6c0,0.3-0.3,0.6-0.6,0.6s-0.6-0.3-0.6-0.6
	C213.8,249.8,214,249.6,214.3,249.6z"/>
<circle class="st26" cx="228.8" cy="250.1" r="0.6"/>
<path class="st26" d="M221.6,245.4c0.3,0,0.6,0.3,0.6,0.6c0,0.3-0.3,0.6-0.6,0.6s-0.6-0.3-0.6-0.6
	C221,245.6,221.3,245.4,221.6,245.4z"/>
<path class="st26" d="M221.5,253.7c0.3,0,0.6,0.3,0.6,0.6c0,0.3-0.3,0.6-0.6,0.6s-0.6-0.3-0.6-0.6C221,254,221.2,253.7,221.5,253.7z
	"/>
<path class="st27" d="M214.5,232.9c0.3,0,0.6,0.3,0.6,0.6s-0.3,0.6-0.6,0.6s-0.6-0.3-0.6-0.6S214.2,232.9,214.5,232.9z"/>
<path class="st27" d="M221.7,237.1c0.3,0,0.6,0.3,0.6,0.6s-0.3,0.6-0.6,0.6s-0.6-0.3-0.6-0.6C221.1,237.3,221.4,237.1,221.7,237.1z"
	/>
<path class="st26" d="M228.9,241.2c0.3,0,0.6,0.3,0.6,0.6s-0.3,0.6-0.6,0.6s-0.6-0.3-0.6-0.6C228.3,241.5,228.6,241.2,228.9,241.2z"
	/>
<path class="st26" d="M236.1,245.4c0.3,0,0.6,0.3,0.6,0.6c0,0.3-0.3,0.6-0.6,0.6s-0.6-0.3-0.6-0.6
	C235.5,245.6,235.8,245.4,236.1,245.4z"/>
<linearGradient id="SVGID_14_" gradientUnits="userSpaceOnUse" x1="505.0193" y1="624.8032" x2="559.507" y2="624.8032" gradientTransform="matrix(0.6581 0 0 0.6581 3.4103 -243.454)">
	<stop  offset="0" style="stop-color:#4CA8DD;stop-opacity:0"/>
	<stop  offset="1" style="stop-color:#4CA8DD"/>
</linearGradient>
<polygon class="st28" points="371.6,189.9 335.8,169.2 335.8,145.5 371.6,166.2 "/>
<linearGradient id="SVGID_15_" gradientUnits="userSpaceOnUse" x1="466.1749" y1="667.5019" x2="559.5804" y2="667.5019" gradientTransform="matrix(0.6581 0 0 0.6581 3.4103 -243.454)">
	<stop  offset="0" style="stop-color:#4CA8DD;stop-opacity:0"/>
	<stop  offset="1" style="stop-color:#4CA8DD"/>
</linearGradient>
<polyline class="st29" points="310.2,225.4 371.6,189.9 371.6,166.2 356.3,169.2 356.3,175.1 340.9,178.1 340.9,184 325.5,186.9 
	325.5,198.8 310.2,207.6 310.2,225.4 "/>
<linearGradient id="SVGID_16_" gradientUnits="userSpaceOnUse" x1="411.6239" y1="636.0477" x2="505.0747" y2="636.0477" gradientTransform="matrix(0.6581 0 0 0.6581 3.4103 -243.454)">
	<stop  offset="0" style="stop-color:#4CA8DD;stop-opacity:0"/>
	<stop  offset="1" style="stop-color:#4CA8DD"/>
</linearGradient>
<polyline class="st30" points="274.3,204.7 335.8,169.2 335.8,145.5 320.4,148.5 320.4,154.4 305,157.4 305,163.3 289.7,166.2 
	289.7,178.1 274.3,186.9 274.3,204.7 "/>
<linearGradient id="SVGID_17_" gradientUnits="userSpaceOnUse" x1="411.6239" y1="683.229" x2="466.1125" y2="683.229" gradientTransform="matrix(0.6581 0 0 0.6581 3.4103 -243.454)">
	<stop  offset="0" style="stop-color:#4CA8DD;stop-opacity:0.75"/>
	<stop  offset="1" style="stop-color:#4CA8DD;stop-opacity:0"/>
</linearGradient>
<polygon class="st31" points="310.2,207.6 310.2,225.4 274.3,204.7 274.3,186.9 "/>
<linearGradient id="SVGID_18_" gradientUnits="userSpaceOnUse" x1="458.2733" y1="629.3618" x2="512.7611" y2="629.3618" gradientTransform="matrix(0.6581 0 0 0.6581 3.4103 -243.454)">
	<stop  offset="0" style="stop-color:#4CA8DD;stop-opacity:0"/>
	<stop  offset="1" style="stop-color:#4CA8DD"/>
</linearGradient>
<polygon class="st32" points="340.9,184 340.9,178.1 305,157.4 305,163.3 "/>
<linearGradient id="SVGID_19_" gradientUnits="userSpaceOnUse" x1="481.674" y1="615.838" x2="536.1633" y2="615.838" gradientTransform="matrix(0.6581 0 0 0.6581 3.4103 -243.454)">
	<stop  offset="0" style="stop-color:#4CA8DD;stop-opacity:0"/>
	<stop  offset="1" style="stop-color:#4CA8DD"/>
</linearGradient>
<polygon class="st33" points="356.3,169.2 320.4,148.5 320.4,154.4 356.3,175.1 "/>
<linearGradient id="SVGID_20_" gradientUnits="userSpaceOnUse" x1="434.9646" y1="647.2922" x2="489.4531" y2="647.2922" gradientTransform="matrix(0.6581 0 0 0.6581 3.4103 -243.454)">
	<stop  offset="0" style="stop-color:#4CA8DD;stop-opacity:0"/>
	<stop  offset="1" style="stop-color:#4CA8DD"/>
</linearGradient>
<polygon class="st34" points="289.7,166.2 289.7,178.1 325.5,198.8 325.5,186.9 "/>
<polygon class="st4" points="371.6,184 371.6,166.2 335.8,145.5 335.8,145.5 320.4,148.5 320.4,148.5 320.4,148.5 320.4,154.4 
	305,157.4 305,157.4 305,157.4 305,163.3 289.7,166.2 289.7,166.2 289.7,166.2 289.7,178.1 274.3,186.9 274.3,186.9 274.3,186.9 
	274.3,198.8 264.1,204.8 310.2,231.3 381.9,189.9 "/>
<polygon class="st4" points="371.6,189.9 335.8,169.2 335.8,145.5 371.6,166.2 "/>
<polyline class="st4" points="310.2,225.4 371.6,189.9 371.6,166.2 356.3,169.2 356.3,175.1 340.9,178.1 340.9,184 325.5,186.9 
	325.5,198.8 310.2,207.6 310.2,225.4 "/>
<polyline class="st4" points="274.3,204.7 335.8,169.2 335.8,145.5 320.4,148.5 320.4,154.4 305,157.4 305,163.3 289.7,166.2 
	289.7,178.1 274.3,186.9 274.3,204.7 "/>
<polygon class="st4" points="310.2,207.6 310.2,225.4 274.3,204.7 274.3,186.9 "/>
<polygon class="st4" points="340.9,184 340.9,178.1 305,157.4 305,163.3 "/>
<polygon class="st4" points="356.3,169.2 320.4,148.5 320.4,154.4 356.3,175.1 "/>
<polygon class="st4" points="289.7,166.2 289.7,178.1 325.5,198.8 325.5,186.9 "/>
<path class="st19" d="M310.2,224.8c0.3,0,0.6,0.3,0.6,0.6s-0.3,0.6-0.6,0.6c-0.3,0-0.6-0.3-0.6-0.6
	C309.6,225.1,309.8,224.8,310.2,224.8z"/>
<path class="st19" d="M310.2,207.1c0.3,0,0.6,0.3,0.6,0.6s-0.3,0.6-0.6,0.6c-0.3,0-0.6-0.3-0.6-0.6
	C309.6,207.3,309.8,207.1,310.2,207.1z"/>
<path class="st19" d="M325.5,198.2c0.3,0,0.6,0.3,0.6,0.6s-0.3,0.6-0.6,0.6c-0.3,0-0.6-0.3-0.6-0.6
	C325,198.4,325.2,198.2,325.5,198.2z"/>
<path class="st19" d="M325.5,186.4c0.3,0,0.6,0.3,0.6,0.6s-0.3,0.6-0.6,0.6c-0.3,0-0.6-0.3-0.6-0.6
	C325,186.6,325.2,186.4,325.5,186.4z"/>
<path class="st19" d="M340.9,183.4c0.3,0,0.6,0.3,0.6,0.6s-0.3,0.6-0.6,0.6c-0.3,0-0.6-0.3-0.6-0.6S340.6,183.4,340.9,183.4z"/>
<path class="st19" d="M340.9,177.5c0.3,0,0.6,0.3,0.6,0.6s-0.3,0.6-0.6,0.6c-0.3,0-0.6-0.3-0.6-0.6
	C340.3,177.7,340.6,177.5,340.9,177.5z"/>
<path class="st19" d="M356.3,174.5c0.3,0,0.6,0.3,0.6,0.6s-0.3,0.6-0.6,0.6c-0.3,0-0.6-0.3-0.6-0.6
	C355.7,174.8,355.9,174.5,356.3,174.5z"/>
<path class="st19" d="M371.6,165.7c0.3,0,0.6,0.3,0.6,0.6s-0.3,0.6-0.6,0.6c-0.3,0-0.6-0.3-0.6-0.6
	C371.1,165.9,371.3,165.7,371.6,165.7z"/>
<path class="st19" d="M371.6,189.3c0.3,0,0.6,0.3,0.6,0.6s-0.3,0.6-0.6,0.6c-0.3,0-0.6-0.3-0.6-0.6
	C371.1,189.6,371.3,189.3,371.6,189.3z"/>
<path class="st19" d="M356.3,168.6c0.3,0,0.6,0.3,0.6,0.6s-0.3,0.6-0.6,0.6c-0.3,0-0.6-0.3-0.6-0.6
	C355.7,168.8,355.9,168.6,356.3,168.6z"/>
<path class="st19" d="M274.3,204.1c0.3,0,0.6,0.3,0.6,0.6s-0.3,0.6-0.6,0.6c-0.3,0-0.6-0.3-0.6-0.6
	C273.7,204.4,274,204.1,274.3,204.1z"/>
<path class="st19" d="M274.3,186.4c0.3,0,0.6,0.3,0.6,0.6s-0.3,0.6-0.6,0.6c-0.3,0-0.6-0.3-0.6-0.6
	C273.7,186.6,274,186.4,274.3,186.4z"/>
<circle class="st19" cx="289.7" cy="178.1" r="0.6"/>
<circle class="st19" cx="289.7" cy="166.2" r="0.6"/>
<path class="st19" d="M305,162.7c0.3,0,0.6,0.3,0.6,0.6s-0.3,0.6-0.6,0.6c-0.3,0-0.6-0.3-0.6-0.6C304.5,163,304.7,162.7,305,162.7z"
	/>
<circle class="st19" cx="305" cy="157.3" r="0.6"/>
<path class="st19" d="M320.4,153.8c0.3,0,0.6,0.3,0.6,0.6s-0.3,0.6-0.6,0.6c-0.3,0-0.6-0.3-0.6-0.6
	C319.8,154.1,320.1,153.8,320.4,153.8z"/>
<path class="st19" d="M335.8,145c0.3,0,0.6,0.3,0.6,0.6s-0.3,0.6-0.6,0.6c-0.3,0-0.6-0.3-0.6-0.6C335.2,145.2,335.5,145,335.8,145z"
	/>
<path class="st19" d="M335.8,168.6c0.3,0,0.6,0.3,0.6,0.6s-0.3,0.6-0.6,0.6c-0.3,0-0.6-0.3-0.6-0.6
	C335.2,168.9,335.5,168.6,335.8,168.6z"/>
<path class="st19" d="M320.4,147.9c0.3,0,0.6,0.3,0.6,0.6s-0.3,0.6-0.6,0.6c-0.3,0-0.6-0.3-0.6-0.6
	C319.8,148.1,320.1,147.9,320.4,147.9z"/>
<polygon class="st20" points="274.3,204.7 310.2,225.4 371.6,189.9 335.8,169.2 "/>
<polygon class="st21" points="310.2,212.9 303,217.1 310.2,221.3 317.4,217.1 "/>
<path class="st25" d="M303,216.6c0.3,0,0.6,0.3,0.6,0.6s-0.3,0.6-0.6,0.6c-0.3,0-0.6-0.3-0.6-0.6C302.4,216.8,302.6,216.6,303,216.6
	z"/>
<path class="st25" d="M317.4,216.5c0.3,0,0.6,0.3,0.6,0.6s-0.3,0.6-0.6,0.6s-0.6-0.3-0.6-0.6C316.9,216.8,317.1,216.5,317.4,216.5z"
	/>
<path class="st25" d="M310.2,212.4c0.3,0,0.6,0.3,0.6,0.6s-0.3,0.6-0.6,0.6c-0.3,0-0.6-0.3-0.6-0.6
	C309.7,212.6,309.9,212.4,310.2,212.4z"/>
<path class="st25" d="M310.2,220.7c0.3,0,0.6,0.3,0.6,0.6s-0.3,0.6-0.6,0.6c-0.3,0-0.6-0.3-0.6-0.6S309.8,220.7,310.2,220.7z"/>
<polygon class="st21" points="303,208.8 295.8,213 303,217.1 310.2,212.9 "/>
<path class="st25" d="M295.8,212.4c0.3,0,0.6,0.3,0.6,0.6s-0.3,0.6-0.6,0.6c-0.3,0-0.6-0.3-0.6-0.6
	C295.2,212.7,295.5,212.4,295.8,212.4z"/>
<circle class="st25" cx="303" cy="208.8" r="0.6"/>
<path class="st27" d="M288.6,208.2c0.3,0,0.6,0.3,0.6,0.6s-0.3,0.6-0.6,0.6c-0.3,0-0.6-0.3-0.6-0.6S288.3,208.2,288.6,208.2z"/>
<path class="st27" d="M295.9,204c0.3,0,0.6,0.3,0.6,0.6s-0.3,0.6-0.6,0.6s-0.6-0.3-0.6-0.6S295.5,204,295.9,204z"/>
<polygon class="st4" points="288.7,200.5 281.4,204.7 288.6,208.8 295.9,204.6 "/>
<path class="st27" d="M281.4,204.1c0.3,0,0.6,0.3,0.6,0.6s-0.3,0.6-0.6,0.6c-0.3,0-0.6-0.3-0.6-0.6
	C280.8,204.3,281.1,204.1,281.4,204.1z"/>
<path class="st27" d="M288.7,199.9c0.3,0,0.6,0.3,0.6,0.6s-0.3,0.6-0.6,0.6c-0.3,0-0.6-0.3-0.6-0.6
	C288.1,200.1,288.3,199.9,288.7,199.9z"/>
<polygon class="st21" points="317.5,208.7 310.2,212.9 317.4,217.1 324.7,212.9 "/>
<path class="st25" d="M324.7,212.3c0.3,0,0.6,0.3,0.6,0.6s-0.3,0.6-0.6,0.6s-0.6-0.3-0.6-0.6C324.1,212.6,324.4,212.3,324.7,212.3z"
	/>
<path class="st25" d="M317.5,208.2c0.3,0,0.6,0.3,0.6,0.6s-0.3,0.6-0.6,0.6c-0.3,0-0.6-0.3-0.6-0.6
	C316.9,208.4,317.2,208.2,317.5,208.2z"/>
<polygon class="st21" points="310.3,204.6 303,208.8 310.2,212.9 317.5,208.7 "/>
<path class="st25" d="M310.3,204c0.3,0,0.6,0.3,0.6,0.6s-0.3,0.6-0.6,0.6c-0.3,0-0.6-0.3-0.6-0.6C309.8,204.2,310,204,310.3,204z"/>
<path class="st27" d="M303.1,199.8c0.3,0,0.6,0.3,0.6,0.6s-0.3,0.6-0.6,0.6c-0.3,0-0.6-0.3-0.6-0.6
	C302.6,200.1,302.8,199.8,303.1,199.8z"/>
<polygon class="st4" points="295.9,196.3 288.7,200.5 295.9,204.6 303.1,200.4 "/>
<path class="st27" d="M295.9,195.7c0.3,0,0.6,0.3,0.6,0.6s-0.3,0.6-0.6,0.6s-0.6-0.3-0.6-0.6C295.4,195.9,295.6,195.7,295.9,195.7z"
	/>
<polygon class="st21" points="324.8,204.5 317.5,208.7 324.7,212.9 332,208.7 "/>
<path class="st25" d="M332,208.1c0.3,0,0.6,0.3,0.6,0.6s-0.3,0.6-0.6,0.6c-0.3,0-0.6-0.3-0.6-0.6S331.7,208.1,332,208.1z"/>
<path class="st25" d="M324.8,203.9c0.3,0,0.6,0.3,0.6,0.6s-0.3,0.6-0.6,0.6c-0.3,0-0.6-0.3-0.6-0.6
	C324.2,204.2,324.5,203.9,324.8,203.9z"/>
<polygon class="st21" points="317.6,200.4 310.3,204.6 317.5,208.7 324.8,204.5 "/>
<path class="st25" d="M317.6,199.8c0.3,0,0.6,0.3,0.6,0.6s-0.3,0.6-0.6,0.6c-0.3,0-0.6-0.3-0.6-0.6C317,200,317.3,199.8,317.6,199.8
	z"/>
<path class="st26" d="M310.4,195.6c0.3,0,0.6,0.3,0.6,0.6s-0.3,0.6-0.6,0.6c-0.3,0-0.6-0.3-0.6-0.6S310.1,195.6,310.4,195.6z"/>
<path class="st26" d="M303.2,191.5c0.3,0,0.6,0.3,0.6,0.6s-0.3,0.6-0.6,0.6c-0.3,0-0.6-0.3-0.6-0.6
	C302.6,191.7,302.9,191.5,303.2,191.5z"/>
<path class="st27" d="M339.3,203.9c0.3,0,0.6,0.3,0.6,0.6s-0.3,0.6-0.6,0.6c-0.3,0-0.6-0.3-0.6-0.6
	C338.7,204.2,338.9,203.9,339.3,203.9z"/>
<path class="st27" d="M332.1,199.7c0.3,0,0.6,0.3,0.6,0.6s-0.3,0.6-0.6,0.6c-0.3,0-0.6-0.3-0.6-0.6S331.8,199.7,332.1,199.7z"/>
<path class="st26" d="M317.7,191.4c0.3,0,0.6,0.3,0.6,0.6s-0.3,0.6-0.6,0.6c-0.3,0-0.6-0.3-0.6-0.6S317.4,191.4,317.7,191.4z"/>
<polygon class="st22" points="310.5,187.9 303.2,192.1 310.4,196.2 317.7,192 "/>
<path class="st26" d="M310.5,187.3c0.3,0,0.6,0.3,0.6,0.6s-0.3,0.6-0.6,0.6c-0.3,0-0.6-0.3-0.6-0.6
	C309.9,187.5,310.2,187.3,310.5,187.3z"/>
<polygon class="st4" points="339.3,196.1 332.1,200.3 339.3,204.5 346.5,200.3 "/>
<path class="st27" d="M346.5,199.7c0.3,0,0.6,0.3,0.6,0.6s-0.3,0.6-0.6,0.6c-0.3,0-0.6-0.3-0.6-0.6C346,200,346.2,199.7,346.5,199.7
	z"/>
<path class="st27" d="M339.3,195.5c0.3,0,0.6,0.3,0.6,0.6s-0.3,0.6-0.6,0.6c-0.3,0-0.6-0.3-0.6-0.6
	C338.8,195.8,339,195.5,339.3,195.5z"/>
<path class="st24" d="M332.1,191.4c0.3,0,0.6,0.3,0.6,0.6s-0.3,0.6-0.6,0.6c-0.3,0-0.6-0.3-0.6-0.6
	C331.6,191.6,331.8,191.4,332.1,191.4z"/>
<path class="st24" d="M325,187.2c0.3,0,0.6,0.3,0.6,0.6s-0.3,0.6-0.6,0.6c-0.3,0-0.6-0.3-0.6-0.6S324.6,187.2,325,187.2z"/>
<path class="st24" d="M317.8,183.1c0.3,0,0.6,0.3,0.6,0.6s-0.3,0.6-0.6,0.6s-0.6-0.3-0.6-0.6C317.2,183.3,317.5,183.1,317.8,183.1z"
	/>
<polygon class="st4" points="346.6,191.9 339.3,196.1 346.5,200.3 353.8,196.1 "/>
<path class="st27" d="M353.8,195.5c0.3,0,0.6,0.3,0.6,0.6s-0.3,0.6-0.6,0.6c-0.3,0-0.6-0.3-0.6-0.6
	C353.2,195.8,353.5,195.5,353.8,195.5z"/>
<path class="st27" d="M346.6,191.3c0.3,0,0.6,0.3,0.6,0.6s-0.3,0.6-0.6,0.6c-0.3,0-0.6-0.3-0.6-0.6
	C346.1,191.6,346.3,191.3,346.6,191.3z"/>
<path class="st24" d="M339.4,187.2c0.3,0,0.6,0.3,0.6,0.6s-0.3,0.6-0.6,0.6c-0.3,0-0.6-0.3-0.6-0.6
	C338.9,187.4,339.1,187.2,339.4,187.2z"/>
<polygon class="st23" points="332.2,183.6 325,187.8 332.1,192 339.4,187.8 "/>
<path class="st24" d="M332.2,183c0.3,0,0.6,0.3,0.6,0.6s-0.3,0.6-0.6,0.6c-0.3,0-0.6-0.3-0.6-0.6C331.7,183.3,331.9,183,332.2,183z"
	/>
<polygon class="st23" points="325,179.5 317.8,183.7 325,187.8 332.2,183.6 "/>
<path class="st24" d="M325,178.9c0.3,0,0.6,0.3,0.6,0.6s-0.3,0.6-0.6,0.6c-0.3,0-0.6-0.3-0.6-0.6C324.5,179.1,324.7,178.9,325,178.9
	z"/>
<polygon class="st4" points="353.9,187.7 346.6,191.9 353.8,196.1 361.1,191.9 "/>
<path class="st27" d="M361.1,191.3c0.3,0,0.6,0.3,0.6,0.6s-0.3,0.6-0.6,0.6c-0.3,0-0.6-0.3-0.6-0.6
	C360.5,191.5,360.8,191.3,361.1,191.3z"/>
<path class="st27" d="M353.9,187.1c0.3,0,0.6,0.3,0.6,0.6s-0.3,0.6-0.6,0.6c-0.3,0-0.6-0.3-0.6-0.6S353.6,187.1,353.9,187.1z"/>
<path class="st24" d="M346.7,183c0.3,0,0.6,0.3,0.6,0.6s-0.3,0.6-0.6,0.6c-0.3,0-0.6-0.3-0.6-0.6C346.1,183.2,346.4,183,346.7,183z"
	/>
<polygon class="st23" points="339.5,179.4 332.2,183.6 339.4,187.8 346.7,183.6 "/>
<path class="st24" d="M339.5,178.8c0.3,0,0.6,0.3,0.6,0.6s-0.3,0.6-0.6,0.6c-0.3,0-0.6-0.3-0.6-0.6
	C338.9,179.1,339.2,178.8,339.5,178.8z"/>
<polygon class="st23" points="332.3,175.3 325,179.5 332.2,183.6 339.5,179.4 "/>
<path class="st24" d="M332.3,174.7c0.3,0,0.6,0.3,0.6,0.6s-0.3,0.6-0.6,0.6c-0.3,0-0.6-0.3-0.6-0.6
	C331.8,174.9,332,174.7,332.3,174.7z"/>
<polyline class="st35" points="312.4,79 363.2,49.7 363.2,30.2 350.5,32.6 350.5,37.5 337.8,39.9 337.8,44.8 325.1,47.3 325.1,57 
	312.4,64.3 312.4,79 "/>
<polygon class="st36" points="337.8,39.9 308.2,22.9 320.9,20.4 350.5,37.5 "/>
<polygon class="st36" points="350.5,32.6 320.9,15.5 333.6,13.1 363.2,30.2 "/>
<polygon class="st36" points="337.8,44.8 308.2,27.7 295.5,30.2 325.1,47.3 "/>
<polygon class="st37" points="312.4,64.3 312.4,79 282.8,61.9 282.8,47.3 "/>
<polygon class="st37" points="337.8,44.8 337.8,39.9 308.2,22.9 308.2,27.7 "/>
<polygon class="st37" points="350.5,32.6 320.9,15.5 320.9,20.4 350.5,37.5 "/>
<polyline class="st37" points="282.8,47.3 295.5,39.9 295.5,30.2 325.1,47.3 325.1,57 "/>
<polygon class="st36" points="295.5,39.9 325.1,57 312.4,64.3 282.8,47.3 "/>
<polygon class="st38" points="274.4,64.3 274.4,66.8 312.4,88.8 312.4,83.9 274.4,62 "/>
<polygon class="st37" points="371.6,54.6 312.4,88.8 312.4,83.9 371.6,49.7 "/>
<polygon class="st39" points="288.9,65.6 288.9,58 284.5,55.4 284.5,63 "/>
<polygon class="st39" points="290,58.8 292.1,60 292.1,64.9 290,63.7 "/>
<polygon class="st40" points="320.9,79 312.5,79 282.8,61.9 282.8,57 274.4,62 303.9,79 "/>
<polygon class="st19" points="371.6,49.7 363.2,44.8 363.2,49.6 312.5,79 303.9,79 312.4,83.9 "/>
<polygon class="st38" points="250.9,106.8 193.3,140.1 153,116.8 210.6,83.5 "/>
<polygon class="st19" points="250.9,101.4 193.3,134.6 153,111.4 210.6,78.1 "/>
<polygon class="st38" points="193.3,140.1 193.3,134.6 153,111.4 153,116.8 "/>
<polygon class="st40" points="198,110.5 178.1,96.9 153,111.4 183.8,129.2 193.3,129.2 "/>
<polygon class="st35" points="182.1,40.4 182.1,60.8 162.4,72.2 162.4,111.4 210.6,83.5 210.6,23.9 "/>
<polygon class="st36" points="162.4,90 193.3,107.8 241.5,80 210.6,62.2 "/>
<polygon class="st35" points="212.9,58.2 212.9,78.6 193.3,90 193.3,129.2 241.5,101.4 241.5,41.7 "/>
<polygon class="st36" points="210.6,23.9 182.1,40.4 212.9,58.2 241.5,41.7 "/>
<path class="st37" d="M162.4,72.1c0,16.2,0,36.5,0,39.2l30.9,17.8V89.9L162.4,72.1z"/>
<polygon class="st37" points="182.1,60.8 212.9,78.6 212.9,58.2 182.1,40.4 "/>
<polygon class="st36" points="212.9,78.6 193.3,90 162.4,72.1 182.1,60.8 "/>
<polygon class="st40" points="182.1,60.8 162.4,72.1 173.6,78.6 212.9,78.6 "/>
<g>
	<g>
		<polygon class="st39" points="190.2,99.9 187.5,98.3 187.5,101.5 190.2,103.1 		"/>
		<polygon class="st39" points="184.7,96.7 182,95.1 182,98.3 184.7,99.9 		"/>
		<polygon class="st39" points="179.2,93.6 176.5,92 176.5,95.1 179.2,96.7 		"/>
		<polygon class="st39" points="173.7,90.4 171,88.8 171,92 173.7,93.6 		"/>
		<polygon class="st39" points="168.2,87.2 165.5,85.6 165.5,88.8 168.2,90.4 		"/>
	</g>
</g>
<g>
	<g>
		<polygon class="st39" points="190.2,94 187.5,92.4 187.5,95.6 190.2,97.2 		"/>
		<polygon class="st39" points="184.7,90.8 182,89.2 182,92.4 184.7,94 		"/>
		<polygon class="st39" points="179.2,87.7 176.5,86.1 176.5,89.2 179.2,90.8 		"/>
		<polygon class="st39" points="173.7,84.5 171,82.9 171,86.1 173.7,87.7 		"/>
		<polygon class="st39" points="168.2,81.3 165.5,79.7 165.5,82.9 168.2,84.5 		"/>
	</g>
</g>
<g>
	<g>
		<polygon class="st39" points="196.4,99.9 199.1,98.3 199.1,101.5 196.4,103.1 		"/>
		<polygon class="st39" points="201.9,96.7 204.6,95.1 204.6,98.3 201.9,99.9 		"/>
		<polygon class="st39" points="207.3,93.6 210.1,92 210.1,95.1 207.3,96.7 		"/>
		<polygon class="st39" points="212.8,90.4 215.6,88.8 215.6,92 212.8,93.6 		"/>
		<polygon class="st39" points="218.3,87.2 221.1,85.6 221.1,88.8 218.3,90.4 		"/>
	</g>
</g>
<g>
	<g>
		<polygon class="st39" points="196.4,94 199.1,92.4 199.1,95.6 196.4,97.2 		"/>
		<polygon class="st39" points="201.9,90.8 204.6,89.3 204.6,92.4 201.9,94 		"/>
		<polygon class="st39" points="207.3,87.7 210.1,86.1 210.1,89.3 207.3,90.8 		"/>
		<polygon class="st39" points="212.8,84.5 215.6,82.9 215.6,86.1 212.8,87.7 		"/>
		<polygon class="st39" points="218.3,81.3 221.1,79.7 221.1,82.9 218.3,84.5 		"/>
	</g>
</g>
<g>
	<g>
		<polygon class="st39" points="223.8,84.1 226.6,82.5 226.6,85.6 223.8,87.2 		"/>
		<polygon class="st39" points="229.3,80.9 232.1,79.3 232.1,82.5 229.3,84.1 		"/>
		<polygon class="st39" points="234.8,77.7 237.5,76.1 237.5,79.3 234.8,80.9 		"/>
	</g>
</g>
<g>
	<g>
		<polygon class="st39" points="223.8,78.2 226.6,76.6 226.6,79.7 223.8,81.3 		"/>
		<polygon class="st39" points="229.3,75 232.1,73.4 232.1,76.6 229.3,78.2 		"/>
		<polygon class="st39" points="234.8,71.8 237.5,70.2 237.5,73.4 234.8,75 		"/>
	</g>
</g>
<polygon class="st39" points="187.1,116.5 182.4,113.8 182.4,122.9 187.1,125.6 "/>
<g>
	<polygon class="st39" points="180,112.4 165.5,104 165.5,113.1 180,121.5 	"/>
</g>
<polygon class="st36" points="180.8,64.3 185.5,67 180.8,69.7 176,67 "/>
<polygon class="st35" points="180.8,69.7 185.5,67 185.5,72.4 180.8,75.2 "/>
<polygon class="st37" points="180.8,69.7 176,67 176,72.4 180.8,75.2 "/>
<g>
	<rect x="185.8" y="77.9" class="st40" width="9.1" height="5.4"/>
	<polygon class="st40" points="185.8,77.9 190.6,80.6 185.8,83.3 181.1,80.6 	"/>
</g>
<g>
	<polygon class="st36" points="194.9,72.4 199.6,75.2 194.9,77.9 190.2,75.2 	"/>
	<polygon class="st35" points="194.9,77.9 199.6,75.2 199.6,80.6 194.9,83.3 	"/>
	<polygon class="st37" points="194.9,77.9 190.2,75.2 190.2,80.6 194.9,83.3 	"/>
</g>
<g>
	<rect x="210.5" y="43.2" class="st40" width="9.1" height="5.4"/>
	<polygon class="st40" points="210.5,43.2 215.3,45.9 210.5,48.7 205.8,45.9 	"/>
</g>
<g>
	<polygon class="st36" points="219.6,37.8 224.4,40.5 219.6,43.2 214.9,40.5 	"/>
	<polygon class="st35" points="219.6,43.2 224.4,40.5 224.4,45.9 219.6,48.7 	"/>
	<polygon class="st37" points="219.6,43.2 214.9,40.5 214.9,45.9 219.6,48.7 	"/>
</g>
<g>
	<rect x="196.4" y="35" class="st40" width="9.1" height="5.4"/>
	<polygon class="st40" points="196.4,35 201.1,37.8 196.4,40.5 191.7,37.8 	"/>
</g>
<g>
	<polygon class="st36" points="205.5,29.6 210.2,32.3 205.5,35 200.8,32.3 	"/>
	<polygon class="st35" points="205.5,35 210.2,32.3 210.2,37.8 205.5,40.5 	"/>
	<polygon class="st37" points="205.5,35 200.8,32.3 200.8,37.8 205.5,40.5 	"/>
</g>
<polygon class="st37" points="193.3,134.6 250.9,101.4 250.9,106.8 193.3,140.1 "/>
<polygon class="st4" points="131.5,208.5 131.5,190.8 59.7,149.4 16.2,174.5 16.2,192.2 5.9,198.1 59.7,229.2 84.3,215 112.6,231.3 
	141.8,214.5 "/>
<path class="st41" d="M93.7,181.3c0.7,0,1.3-0.1,1.8-0.4c0.4-0.2,0.7-0.5,0.7-0.9c0-0.3-0.2-0.6-0.6-0.9c-0.5-0.3-1.1-0.4-1.8-0.4
	c-0.7,0-1.3,0.2-1.8,0.4c-0.4,0.2-0.7,0.5-0.7,0.9c0,0.3,0.2,0.6,0.6,0.9C92.4,181.1,93,181.3,93.7,181.3"/>
<path class="st41" d="M103.1,186.7c0.7,0,1.3-0.2,1.8-0.4c0.4-0.2,0.7-0.5,0.7-0.9c0-0.3-0.2-0.6-0.6-0.9c-0.5-0.3-1.1-0.4-1.8-0.4
	c-0.7,0-1.3,0.2-1.8,0.4c-0.4,0.2-0.7,0.5-0.7,0.9c0,0.3,0.2,0.6,0.6,0.9C101.8,186.6,102.5,186.7,103.1,186.7"/>
<path class="st41" d="M112.6,192.1c0.7,0,1.3-0.1,1.8-0.4c0.4-0.2,0.7-0.5,0.7-0.9c0-0.3-0.2-0.6-0.6-0.9c-0.5-0.3-1.1-0.4-1.8-0.4
	c-0.7,0-1.3,0.2-1.8,0.4c-0.4,0.2-0.7,0.5-0.7,0.9c0,0.3,0.2,0.6,0.6,0.9C111.3,192,111.9,192.1,112.6,192.1"/>
<path class="st41" d="M93.7,159.5c0.7,0,1.3-0.1,1.8-0.4c0.4-0.2,0.7-0.5,0.7-0.9c0-0.3-0.2-0.6-0.6-0.9c-0.5-0.3-1.1-0.4-1.8-0.4
	c-0.7,0-1.3,0.2-1.8,0.4c-0.4,0.2-0.7,0.5-0.7,0.9c0,0.3,0.2,0.6,0.6,0.9C92.4,159.4,93,159.5,93.7,159.5"/>
<path class="st41" d="M103.1,165c0.7,0,1.3-0.1,1.8-0.4c0.4-0.2,0.7-0.5,0.7-0.9c0-0.3-0.2-0.6-0.6-0.9c-0.5-0.3-1.1-0.4-1.8-0.4
	c-0.7,0-1.3,0.2-1.8,0.4c-0.4,0.2-0.7,0.5-0.7,0.9c0,0.3,0.2,0.6,0.6,0.9C101.8,164.8,102.5,165,103.1,165"/>
<path class="st41" d="M112.6,176.8c0.7,0,1.3-0.1,1.8-0.4c0.4-0.2,0.7-0.5,0.7-0.9c0-0.3-0.2-0.6-0.6-0.9c-0.5-0.3-1.1-0.4-1.8-0.4
	c-0.7,0-1.3,0.2-1.8,0.4c-0.4,0.2-0.7,0.5-0.7,0.9c0,0.3,0.2,0.6,0.6,0.9C111.3,176.7,111.9,176.8,112.6,176.8"/>
<linearGradient id="SVGID_21_" gradientUnits="userSpaceOnUse" x1="122.8386" y1="682.0894" x2="165.9099" y2="682.0894" gradientTransform="matrix(0.6581 0 0 0.6581 3.4103 -243.454)">
	<stop  offset="0" style="stop-color:#4CA8DD;stop-opacity:0"/>
	<stop  offset="1" style="stop-color:#4CA8DD"/>
</linearGradient>
<polygon class="st42" points="112.6,201.7 84.3,185.4 84.3,209 112.6,225.4 "/>
<linearGradient id="SVGID_22_" gradientUnits="userSpaceOnUse" x1="85.4654" y1="680.4178" x2="122.8457" y2="680.4178" gradientTransform="matrix(0.6581 0 0 0.6581 3.4103 -243.454)">
	<stop  offset="0" style="stop-color:#4CA8DD;stop-opacity:0.75"/>
	<stop  offset="1" style="stop-color:#4CA8DD;stop-opacity:0"/>
</linearGradient>
<polygon class="st43" points="59.7,223.2 59.7,199.6 84.3,185.4 84.3,209 "/>
<linearGradient id="SVGID_23_" gradientUnits="userSpaceOnUse" x1="19.4343" y1="633.9963" x2="85.5337" y2="633.9963" gradientTransform="matrix(0.6581 0 0 0.6581 3.4103 -243.454)">
	<stop  offset="0" style="stop-color:#4CA8DD;stop-opacity:0.75"/>
	<stop  offset="1" style="stop-color:#4CA8DD;stop-opacity:0"/>
</linearGradient>
<polygon class="st44" points="16.2,198.1 59.7,173 59.7,149.4 16.2,174.5 "/>
<linearGradient id="SVGID_24_" gradientUnits="userSpaceOnUse" x1="85.5337" y1="646.4565" x2="194.6356" y2="646.4565" gradientTransform="matrix(0.6581 0 0 0.6581 3.4103 -243.454)">
	<stop  offset="0" style="stop-color:#4CA8DD;stop-opacity:0.75"/>
	<stop  offset="1" style="stop-color:#4CA8DD;stop-opacity:0"/>
</linearGradient>
<polygon class="st45" points="59.7,149.4 131.5,190.8 131.5,214.5 59.7,173 "/>
<linearGradient id="SVGID_25_" gradientUnits="userSpaceOnUse" x1="19.4343" y1="672.1365" x2="85.5337" y2="672.1365" gradientTransform="matrix(0.6581 0 0 0.6581 3.4103 -243.454)">
	<stop  offset="0" style="stop-color:#4CA8DD;stop-opacity:0"/>
	<stop  offset="1" style="stop-color:#4CA8DD"/>
</linearGradient>
<polygon class="st46" points="16.2,174.5 16.2,198.1 59.7,223.2 59.7,199.6 "/>
<linearGradient id="SVGID_26_" gradientUnits="userSpaceOnUse" x1="165.9166" y1="686.1921" x2="194.6356" y2="686.1921" gradientTransform="matrix(0.6581 0 0 0.6581 3.4103 -243.454)">
	<stop  offset="0" style="stop-color:#4CA8DD;stop-opacity:0.75"/>
	<stop  offset="1" style="stop-color:#4CA8DD;stop-opacity:0"/>
</linearGradient>
<polygon class="st47" points="131.5,214.5 131.5,190.8 112.6,201.7 112.6,225.4 "/>
<linearGradient id="SVGID_27_" gradientUnits="userSpaceOnUse" x1="133.5078" y1="627.9183" x2="140.8838" y2="627.9183" gradientTransform="matrix(0.6581 0 0 0.6581 3.4103 -243.454)">
	<stop  offset="0" style="stop-color:#4CA8DD;stop-opacity:0"/>
	<stop  offset="1" style="stop-color:#4CA8DD"/>
</linearGradient>
<path class="st48" d="M95.5,159.1c-0.5,0.3-1.1,0.4-1.8,0.4c-0.7,0-1.3-0.1-1.8-0.4c-0.4-0.2-0.6-0.5-0.6-0.9v21.7l0,0
	c0,0,0,0,0,0.1c0,0.3,0.2,0.6,0.6,0.9c0.5,0.3,1.1,0.4,1.8,0.4c0.7,0,1.3-0.1,1.8-0.4c0.4-0.2,0.7-0.5,0.7-0.9c0,0,0,0,0-0.1l0,0
	v-21.7l0,0C96.1,158.5,95.9,158.8,95.5,159.1z"/>
<g>
	
		<linearGradient id="SVGID_28_" gradientUnits="userSpaceOnUse" x1="147.8647" y1="636.1237" x2="155.2406" y2="636.1237" gradientTransform="matrix(0.6581 0 0 0.6581 3.4103 -243.454)">
		<stop  offset="0" style="stop-color:#4CA8DD;stop-opacity:0"/>
		<stop  offset="1" style="stop-color:#4CA8DD"/>
	</linearGradient>
	<path class="st49" d="M104.9,164.5c-0.5,0.3-1.1,0.4-1.8,0.4c-0.7,0-1.3-0.1-1.8-0.4c-0.4-0.2-0.6-0.5-0.6-0.9v21.7l0,0
		c0,0,0,0,0,0.1c0,0.3,0.2,0.6,0.6,0.9c0.5,0.3,1.1,0.4,1.8,0.4c0.7,0,1.3-0.2,1.8-0.4c0.4-0.2,0.7-0.5,0.7-0.9c0,0,0,0,0-0.1l0,0
		v-21.7l0,0C105.6,164,105.3,164.3,104.9,164.5z"/>
	
		<linearGradient id="SVGID_29_" gradientUnits="userSpaceOnUse" x1="147.8342" y1="618.7251" x2="147.8342" y2="618.7251" gradientTransform="matrix(0.6581 0 0 0.6581 3.4103 -243.454)">
		<stop  offset="0" style="stop-color:#4CA8DD;stop-opacity:0"/>
		<stop  offset="1" style="stop-color:#4CA8DD"/>
	</linearGradient>
	<path class="st50" d="M100.7,163.7L100.7,163.7L100.7,163.7z"/>
</g>
<linearGradient id="SVGID_30_" gradientUnits="userSpaceOnUse" x1="162.2215" y1="649.2676" x2="169.5973" y2="649.2676" gradientTransform="matrix(0.6581 0 0 0.6581 3.4103 -243.454)">
	<stop  offset="0" style="stop-color:#4CA8DD;stop-opacity:0"/>
	<stop  offset="1" style="stop-color:#4CA8DD"/>
</linearGradient>
<path class="st51" d="M114.4,176.4c-0.5,0.3-1.1,0.4-1.8,0.4c-0.7,0-1.3-0.2-1.8-0.4c-0.4-0.2-0.6-0.5-0.6-0.9l0,0v15.3l0,0l0,0
	c0,0.3,0.2,0.6,0.6,0.9c0.5,0.3,1.1,0.4,1.8,0.4c0.7,0,1.3-0.1,1.8-0.4c0.4-0.2,0.7-0.5,0.7-0.9v-15.3l0,0
	C115,175.9,114.8,176.2,114.4,176.4z"/>
<g>
	<polygon class="st4" points="112.6,201.7 84.3,185.4 84.3,209 112.6,225.4 	"/>
	<polygon class="st4" points="59.7,223.2 59.7,199.6 84.3,185.4 84.3,209 	"/>
	<polygon class="st4" points="16.2,198.1 59.7,173 59.7,149.4 16.2,174.5 	"/>
	<polygon class="st4" points="59.7,149.4 131.5,190.8 131.5,214.5 59.7,173 	"/>
	<polygon class="st4" points="16.2,174.5 16.2,198.1 59.7,223.2 59.7,199.6 	"/>
	<polygon class="st4" points="131.5,214.5 131.5,190.8 112.6,201.7 112.6,225.4 	"/>
</g>
<g>
	<path class="st19" d="M59.7,148.8c0.3,0,0.6,0.3,0.6,0.6S60,150,59.7,150s-0.6-0.3-0.6-0.6C59.1,149,59.3,148.8,59.7,148.8z"/>
	<path class="st19" d="M16.2,173.9c0.3,0,0.6,0.3,0.6,0.6s-0.3,0.6-0.6,0.6c-0.3,0-0.6-0.3-0.6-0.6S15.9,173.9,16.2,173.9z"/>
	<path class="st19" d="M16.2,197.5c0.3,0,0.6,0.3,0.6,0.6s-0.3,0.6-0.6,0.6c-0.3,0-0.6-0.3-0.6-0.6S15.9,197.5,16.2,197.5z"/>
	<path class="st19" d="M59.7,172.4c0.3,0,0.6,0.3,0.6,0.6s-0.3,0.6-0.6,0.6s-0.6-0.3-0.6-0.6C59.1,172.7,59.3,172.4,59.7,172.4z"/>
	<path class="st19" d="M59.7,222.6c0.3,0,0.6,0.3,0.6,0.6s-0.3,0.6-0.6,0.6s-0.6-0.3-0.6-0.6C59.1,222.9,59.3,222.6,59.7,222.6z"/>
	<path class="st19" d="M112.6,224.8c0.3,0,0.6,0.3,0.6,0.6s-0.3,0.6-0.6,0.6c-0.3,0-0.6-0.3-0.6-0.6
		C112,225.1,112.3,224.8,112.6,224.8z"/>
	<path class="st19" d="M112.6,201.2c0.3,0,0.6,0.3,0.6,0.6s-0.3,0.6-0.6,0.6c-0.3,0-0.6-0.3-0.6-0.6
		C112,201.4,112.3,201.2,112.6,201.2z"/>
	<path class="st19" d="M131.5,213.9c0.3,0,0.6,0.3,0.6,0.6s-0.3,0.6-0.6,0.6s-0.6-0.3-0.6-0.6S131.2,213.9,131.5,213.9z"/>
	<path class="st19" d="M131.5,190.3c0.3,0,0.6,0.3,0.6,0.6s-0.3,0.6-0.6,0.6s-0.6-0.3-0.6-0.6C130.9,190.5,131.2,190.3,131.5,190.3z
		"/>
	<path class="st19" d="M84.3,208.4c0.3,0,0.6,0.3,0.6,0.6s-0.3,0.6-0.6,0.6c-0.3,0-0.6-0.3-0.6-0.6
		C83.7,208.7,83.9,208.4,84.3,208.4z"/>
	<path class="st19" d="M84.3,184.8c0.3,0,0.6,0.3,0.6,0.6s-0.3,0.6-0.6,0.6c-0.3,0-0.6-0.3-0.6-0.6
		C83.7,185.1,83.9,184.8,84.3,184.8z"/>
	<path class="st19" d="M59.7,199c0.3,0,0.6,0.3,0.6,0.6s-0.3,0.6-0.6,0.6s-0.6-0.3-0.6-0.6C59.1,199.3,59.3,199,59.7,199z"/>
</g>
<polygon class="st20" points="131.5,214.5 112.6,225.4 84.3,209.1 59.7,223.3 16.2,198.1 59.7,173 "/>
<polygon class="st4" points="66.6,206.4 59.3,210.6 66.5,214.7 73.8,210.5 "/>
<polygon class="st4" points="59.4,202.2 52.1,206.4 59.3,210.6 66.6,206.4 "/>
<line class="st23" x1="102.7" y1="210.4" x2="109.9" y2="214.6"/>
<line class="st23" x1="117.2" y1="210.4" x2="110" y2="206.2"/>
<polyline class="st23" points="110,206.2 102.8,202.1 95.5,206.3 102.7,210.4 "/>
<polyline class="st4" points="66.7,198 73.9,202.2 81.1,197.9 "/>
<polyline class="st4" points="66.8,189.6 59.5,193.8 66.7,198 "/>
<polygon class="st21" points="66.8,189.6 59.6,185.5 52.3,189.7 59.5,193.8 "/>
<polygon class="st23" points="81.1,206.3 88.3,202.1 81.1,197.9 73.9,202.2 "/>
<polygon class="st4" points="59.3,210.6 52,214.8 59.2,218.9 66.5,214.7 "/>
<polyline class="st23" points="109.9,214.6 117.1,218.7 124.4,214.5 117.2,210.4 "/>
<polygon class="st4" points="52.1,206.4 44.8,210.6 52,214.8 59.3,210.6 "/>
<polyline class="st4" points="81.2,189.6 74,185.4 66.8,189.6 "/>
<polyline class="st21" points="59.6,185.5 66.8,181.3 59.7,177.1 52.4,181.3 "/>
<polyline class="st4" points="81.1,197.9 88.4,193.7 81.2,189.6 "/>
<polygon class="st21" points="66.8,189.6 74,185.4 66.8,181.3 59.6,185.5 "/>
<polyline class="st21" points="52.4,181.3 45.1,185.5 52.3,189.7 59.6,185.5 "/>
<polygon class="st22" points="45,193.9 37.8,189.7 30.6,193.9 37.7,198.1 "/>
<circle class="st25" cx="23.3" cy="198.1" r="0.6"/>
<path class="st25" d="M30.5,201.7c0.3,0,0.6,0.3,0.6,0.6s-0.3,0.6-0.6,0.6c-0.3,0-0.6-0.3-0.6-0.6S30.2,201.7,30.5,201.7z"/>
<path class="st25" d="M37.7,205.9c0.3,0,0.6,0.3,0.6,0.6s-0.3,0.6-0.6,0.6s-0.6-0.3-0.6-0.6C37.1,206.1,37.3,205.9,37.7,205.9z"/>
<path class="st27" d="M44.8,210c0.3,0,0.6,0.3,0.6,0.6s-0.3,0.6-0.6,0.6s-0.6-0.3-0.6-0.6C44.3,210.3,44.5,210,44.8,210z"/>
<circle class="st27" cx="52" cy="214.8" r="0.6"/>
<path class="st27" d="M59.2,218.3c0.3,0,0.6,0.3,0.6,0.6s-0.3,0.6-0.6,0.6s-0.6-0.3-0.6-0.6C58.7,218.6,58.9,218.3,59.2,218.3z"/>
<path class="st25" d="M30.6,193.4c0.3,0,0.6,0.3,0.6,0.6s-0.3,0.6-0.6,0.6c-0.3,0-0.6-0.3-0.6-0.6C30,193.6,30.2,193.4,30.6,193.4z"
	/>
<path class="st27" d="M52.1,205.8c0.3,0,0.6,0.3,0.6,0.6s-0.3,0.6-0.6,0.6s-0.6-0.3-0.6-0.6C51.6,206.1,51.8,205.8,52.1,205.8z"/>
<path class="st27" d="M59.3,210c0.3,0,0.6,0.3,0.6,0.6s-0.3,0.6-0.6,0.6s-0.6-0.3-0.6-0.6C58.8,210.2,59,210,59.3,210z"/>
<path class="st27" d="M66.5,214.1c0.3,0,0.6,0.3,0.6,0.6s-0.3,0.6-0.6,0.6c-0.3,0-0.6-0.3-0.6-0.6S66.2,214.1,66.5,214.1z"/>
<path class="st26" d="M37.8,189.2c0.3,0,0.6,0.3,0.6,0.6s-0.3,0.6-0.6,0.6s-0.6-0.3-0.6-0.6C37.3,189.4,37.5,189.2,37.8,189.2z"/>
<path class="st26" d="M45,193.3c0.3,0,0.6,0.3,0.6,0.6s-0.3,0.6-0.6,0.6s-0.6-0.3-0.6-0.6C44.5,193.6,44.7,193.3,45,193.3z"/>
<path class="st26" d="M52.2,197.5c0.3,0,0.6,0.3,0.6,0.6s-0.3,0.6-0.6,0.6s-0.6-0.3-0.6-0.6C51.6,197.7,51.9,197.5,52.2,197.5z"/>
<path class="st27" d="M59.4,201.6c0.3,0,0.6,0.3,0.6,0.6s-0.3,0.6-0.6,0.6s-0.6-0.3-0.6-0.6C58.8,201.9,59.1,201.6,59.4,201.6z"/>
<circle class="st27" cx="66.6" cy="206.4" r="0.6"/>
<path class="st27" d="M73.8,209.9c0.3,0,0.6,0.3,0.6,0.6s-0.3,0.6-0.6,0.6c-0.3,0-0.6-0.3-0.6-0.6C73.2,210.2,73.5,209.9,73.8,209.9
	z"/>
<path class="st25" d="M45.1,185c0.3,0,0.6,0.3,0.6,0.6s-0.3,0.6-0.6,0.6s-0.6-0.3-0.6-0.6C44.5,185.2,44.8,185,45.1,185z"/>
<path class="st25" d="M52.3,189.1c0.3,0,0.6,0.3,0.6,0.6s-0.3,0.6-0.6,0.6s-0.6-0.3-0.6-0.6S52,189.1,52.3,189.1z"/>
<path class="st25" d="M59.5,193.3c0.3,0,0.6,0.3,0.6,0.6s-0.3,0.6-0.6,0.6s-0.6-0.3-0.6-0.6C58.9,193.5,59.2,193.3,59.5,193.3z"/>
<circle class="st27" cx="66.7" cy="198" r="0.6"/>
<path class="st24" d="M73.9,201.6c0.3,0,0.6,0.3,0.6,0.6s-0.3,0.6-0.6,0.6c-0.3,0-0.6-0.3-0.6-0.6C73.3,201.8,73.6,201.6,73.9,201.6
	z"/>
<path class="st24" d="M81.1,205.7c0.3,0,0.6,0.3,0.6,0.6s-0.3,0.6-0.6,0.6c-0.3,0-0.6-0.3-0.6-0.6S80.8,205.7,81.1,205.7z"/>
<path class="st25" d="M52.4,180.8c0.3,0,0.6,0.3,0.6,0.6s-0.3,0.6-0.6,0.6s-0.6-0.3-0.6-0.6C51.8,181,52.1,180.8,52.4,180.8z"/>
<path class="st25" d="M59.6,184.9c0.3,0,0.6,0.3,0.6,0.6s-0.3,0.6-0.6,0.6s-0.6-0.3-0.6-0.6S59.3,184.9,59.6,184.9z"/>
<path class="st25" d="M66.8,189.1c0.3,0,0.6,0.3,0.6,0.6s-0.3,0.6-0.6,0.6c-0.3,0-0.6-0.3-0.6-0.6C66.2,189.3,66.5,189.1,66.8,189.1
	z"/>
<path class="st24" d="M81.1,197.4c0.3,0,0.6,0.3,0.6,0.6s-0.3,0.6-0.6,0.6c-0.3,0-0.6-0.3-0.6-0.6C80.6,197.6,80.8,197.4,81.1,197.4
	z"/>
<path class="st24" d="M88.3,201.5c0.3,0,0.6,0.3,0.6,0.6s-0.3,0.6-0.6,0.6c-0.3,0-0.6-0.3-0.6-0.6C87.8,201.8,88,201.5,88.3,201.5z"
	/>
<path class="st25" d="M59.7,176.6c0.3,0,0.6,0.3,0.6,0.6s-0.3,0.6-0.6,0.6s-0.6-0.3-0.6-0.6C59.1,176.8,59.3,176.6,59.7,176.6z"/>
<path class="st25" d="M66.8,180.7c0.3,0,0.6,0.3,0.6,0.6s-0.3,0.6-0.6,0.6c-0.3,0-0.6-0.3-0.6-0.6C66.3,181,66.5,180.7,66.8,180.7z"
	/>
<path class="st27" d="M74,184.9c0.3,0,0.6,0.3,0.6,0.6s-0.3,0.6-0.6,0.6c-0.3,0-0.6-0.3-0.6-0.6C73.5,185.1,73.7,184.9,74,184.9z"/>
<path class="st27" d="M81.2,189c0.3,0,0.6,0.3,0.6,0.6s-0.3,0.6-0.6,0.6c-0.3,0-0.6-0.3-0.6-0.6C80.7,189.3,80.9,189,81.2,189z"/>
<path class="st24" d="M88.4,193.2c0.3,0,0.6,0.3,0.6,0.6s-0.3,0.6-0.6,0.6c-0.3,0-0.6-0.3-0.6-0.6C87.9,193.4,88.1,193.2,88.4,193.2
	z"/>
<path class="st24" d="M95.6,197.3c0.3,0,0.6,0.3,0.6,0.6s-0.3,0.6-0.6,0.6c-0.3,0-0.6-0.3-0.6-0.6C95.1,197.6,95.3,197.3,95.6,197.3
	z"/>
<path class="st24" d="M102.8,201.5c0.3,0,0.6,0.3,0.6,0.6s-0.3,0.6-0.6,0.6c-0.3,0-0.6-0.3-0.6-0.6
	C102.2,201.7,102.5,201.5,102.8,201.5z"/>
<path class="st24" d="M110,205.6c0.3,0,0.6,0.3,0.6,0.6s-0.3,0.6-0.6,0.6c-0.3,0-0.6-0.3-0.6-0.6S109.7,205.6,110,205.6z"/>
<path class="st24" d="M117.2,209.8c0.3,0,0.6,0.3,0.6,0.6s-0.3,0.6-0.6,0.6c-0.3,0-0.6-0.3-0.6-0.6
	C116.6,210,116.9,209.8,117.2,209.8z"/>
<path class="st24" d="M124.4,213.9c0.3,0,0.6,0.3,0.6,0.6s-0.3,0.6-0.6,0.6c-0.3,0-0.6-0.3-0.6-0.6S124.1,213.9,124.4,213.9z"/>
<path class="st24" d="M95.5,205.7c0.3,0,0.6,0.3,0.6,0.6s-0.3,0.6-0.6,0.6c-0.3,0-0.6-0.3-0.6-0.6C95,205.9,95.2,205.7,95.5,205.7z"
	/>
<path class="st24" d="M102.7,209.8c0.3,0,0.6,0.3,0.6,0.6s-0.3,0.6-0.6,0.6c-0.3,0-0.6-0.3-0.6-0.6
	C102.2,210.1,102.4,209.8,102.7,209.8z"/>
<path class="st24" d="M109.9,214c0.3,0,0.6,0.3,0.6,0.6s-0.3,0.6-0.6,0.6c-0.3,0-0.6-0.3-0.6-0.6C109.3,214.2,109.6,214,109.9,214z"
	/>
<path class="st24" d="M117.1,218.1c0.3,0,0.6,0.3,0.6,0.6s-0.3,0.6-0.6,0.6c-0.3,0-0.6-0.3-0.6-0.6S116.8,218.1,117.1,218.1z"/>
<polyline class="st21" points="37.7,198.1 30.6,193.9 23.3,198.1 30.5,202.3 "/>
<polygon class="st22" points="45,193.9 37.7,198.1 44.9,202.2 52.2,198 "/>
<polyline class="st21" points="30.5,202.3 37.7,206.4 44.9,202.2 37.7,198.1 "/>
<path class="st25" d="M37.7,197.5c0.3,0,0.6,0.3,0.6,0.6s-0.3,0.6-0.6,0.6s-0.6-0.3-0.6-0.6C37.2,197.8,37.4,197.5,37.7,197.5z"/>
<path class="st25" d="M44.9,201.7c0.3,0,0.6,0.3,0.6,0.6s-0.3,0.6-0.6,0.6s-0.6-0.3-0.6-0.6C44.4,201.9,44.6,201.7,44.9,201.7z"/>
<polygon class="st23" points="88.3,202.1 95.6,197.9 88.4,193.7 81.1,197.9 "/>
<path class="st2" d="M159.9,172.8"/>
<path class="st4" d="M112.6,202.3"/>
<line class="st1" x1="28.4" y1="59.3" x2="59.1" y2="149.4"/>
<path class="st19" d="M118.8,60.8"/>
<line class="st1" x1="16.2" y1="173.9" x2="64.1" y2="80.1"/>
<polygon class="st19" points="110,89.3 83.3,73.9 60.2,87.3 9.5,58 60.2,28.8 137.6,73.5 "/>
<polygon class="st19" points="110,83.7 83.3,68.3 60.2,81.7 9.5,52.4 60.2,23.2 137.6,67.9 "/>
<polygon class="st40" points="19.2,52.4 19.2,46.8 9.5,52.4 50.5,76.1 60.2,76.1 "/>
<polygon class="st40" points="89.2,50.9 48.8,62.7 70.9,75.5 83.3,68.3 100.3,78.1 110,78.1 "/>
<polygon class="st36" points="19.2,52.4 60.2,76.1 83.3,62.7 110,78.1 127.8,67.9 60.2,28.8 "/>
<polygon class="st36" points="19.2,30.2 60.2,53.8 83.3,40.4 110,55.9 127.8,45.6 60.2,6.5 "/>
<polygon class="st35" points="127.8,67.9 127.8,45.6 110,55.9 110,78.1 "/>
<polygon class="st37" points="110,55.9 83.3,40.4 83.3,62.7 110,78.1 "/>
<polygon class="st35" points="60.2,76.1 60.2,53.8 83.3,40.4 83.3,62.7 "/>
<polygon class="st37" points="19.2,30.2 19.2,52.4 60.2,76.1 60.2,53.8 "/>
<path class="st35" d="M92.2,36.5c0.6,0,1.2-0.1,1.7-0.4c0.4-0.2,0.6-0.5,0.6-0.8s-0.2-0.6-0.6-0.8c-0.4-0.3-1-0.4-1.7-0.4
	s-1.2,0.1-1.6,0.4C90.2,34.7,90,35,90,35.3s0.2,0.6,0.6,0.8C91,36.4,91.6,36.5,92.2,36.5"/>
<path class="st35" d="M101.1,41.7c0.6,0,1.2-0.1,1.7-0.4c0.4-0.2,0.6-0.5,0.6-0.8s-0.2-0.6-0.6-0.8c-0.4-0.3-1-0.4-1.7-0.4
	c-0.6,0-1.2,0.1-1.7,0.4c-0.4,0.2-0.6,0.5-0.6,0.8s0.2,0.6,0.6,0.8C99.9,41.5,100.5,41.7,101.1,41.7"/>
<rect x="92.2" y="14.9" class="st35" width="2.3" height="20.4"/>
<path class="st40" d="M61.1,36.5c0.6,0,1.2-0.1,1.7-0.4c0.4-0.2,0.6-0.5,0.6-0.8s-0.2-0.6-0.6-0.8c-0.4-0.3-1-0.4-1.7-0.4
	c-0.6,0-1.2,0.1-1.7,0.4c-0.4,0.2-0.6,0.5-0.6,0.8s0.2,0.6,0.6,0.8C59.8,36.4,60.4,36.5,61.1,36.5"/>
<path class="st40" d="M70,41.7c0.6,0,1.2-0.1,1.7-0.4c0.4-0.2,0.6-0.5,0.6-0.8s-0.2-0.6-0.6-0.8c-0.4-0.3-1-0.4-1.7-0.4
	c-0.6,0-1.2,0.1-1.7,0.4c-0.4,0.2-0.6,0.5-0.6,0.8s0.2,0.6,0.6,0.8C68.8,41.5,69.3,41.7,70,41.7"/>
<rect x="61.1" y="34.1" class="st40" width="31.1" height="2.4"/>
<polygon class="st40" points="85.4,41.7 101.1,41.7 101.1,39.2 70,39.2 70,41.7 81.3,41.7 83.3,40.4 "/>
<path class="st37" d="M90.6,34.5c0.4-0.3,1-0.4,1.7-0.4V14.9H90v20.4C90,35,90.2,34.7,90.6,34.5z"/>
<path class="st37" d="M90.6,34.5C90.2,34.7,90,35,90,35.3s0.2,0.6,0.6,0.8c0.4,0.3,1,0.4,1.7,0.4l0,0v-2.4
	C91.6,34.1,91,34.3,90.6,34.5z"/>
<path class="st36" d="M92.2,16.1c0.6,0,1.2-0.1,1.7-0.4c0.4-0.2,0.6-0.5,0.6-0.8s-0.2-0.6-0.6-0.8c-0.4-0.3-1-0.4-1.7-0.4
	s-1.2,0.1-1.7,0.4c-0.4,0.2-0.6,0.5-0.6,0.8s0.2,0.6,0.6,0.8C91,15.9,91.6,16.1,92.2,16.1"/>
<rect x="101.1" y="20" class="st35" width="2.3" height="20.4"/>
<path class="st37" d="M99.5,39.6c0.4-0.3,1-0.4,1.7-0.4V20h-2.3v20.4C98.9,40.2,99.1,39.9,99.5,39.6z"/>
<path class="st37" d="M99.5,39.6c-0.4,0.2-0.6,0.5-0.6,0.8s0.2,0.6,0.6,0.8c0.4,0.3,1,0.4,1.7,0.4l0,0v-2.4
	C100.5,39.2,99.9,39.4,99.5,39.6z"/>
<path class="st36" d="M101.1,21.2c0.6,0,1.2-0.1,1.7-0.4c0.4-0.2,0.6-0.5,0.6-0.8s-0.2-0.6-0.6-0.8c-0.4-0.3-1-0.4-1.7-0.4
	c-0.6,0-1.2,0.1-1.7,0.4c-0.4,0.2-0.6,0.5-0.6,0.8s0.2,0.6,0.6,0.8C99.9,21.1,100.5,21.2,101.1,21.2"/>
<path class="st35" d="M110,46.8c0.6,0,1.2-0.1,1.7-0.4c0.4-0.2,0.6-0.5,0.6-0.8s-0.2-0.6-0.6-0.8c-0.4-0.3-1-0.4-1.7-0.4
	c-0.6,0-1.2,0.1-1.7,0.4c-0.4,0.2-0.6,0.5-0.6,0.8s0.2,0.6,0.6,0.8C108.8,46.7,109.4,46.8,110,46.8"/>
<g>
	<polygon class="st40" points="110,46.8 110,44.4 90.2,44.4 94.3,46.8 	"/>
</g>
<rect x="110" y="31.2" class="st35" width="2.3" height="14.4"/>
<g>
	<path class="st37" d="M108.4,44.8c0.4-0.3,1-0.4,1.7-0.4V31.2h-2.3v14.4C107.8,45.3,108,45,108.4,44.8z"/>
	<path class="st37" d="M108.4,44.8c-0.4,0.2-0.6,0.5-0.6,0.8s0.2,0.6,0.6,0.8c0.4,0.3,1,0.4,1.7,0.4l0,0v-2.4
		C109.4,44.4,108.8,44.5,108.4,44.8z"/>
</g>
<path class="st36" d="M110,32.4c0.6,0,1.2-0.1,1.7-0.4c0.4-0.2,0.6-0.5,0.6-0.8s-0.2-0.6-0.6-0.8c-0.4-0.3-1-0.4-1.7-0.4
	c-0.6,0-1.2,0.1-1.7,0.4c-0.4,0.2-0.6,0.5-0.6,0.8s0.2,0.6,0.6,0.8C108.8,32.3,109.4,32.4,110,32.4"/>
<polygon class="st39" points="116.5,65 121.4,62.2 121.4,71.6 116.5,74.4 "/>
<polygon class="st39" points="122.6,61.5 122.6,66 125,64.7 125,60.2 "/>
<g>
	<polygon class="st39" points="52.3,62.3 49.5,60.6 49.5,63.9 52.3,65.5 	"/>
	<polygon class="st39" points="46.7,59 43.9,57.4 43.9,60.6 46.7,62.3 	"/>
	<polygon class="st39" points="41.1,55.7 38.2,54.1 38.2,57.4 41.1,59 	"/>
	<polygon class="st39" points="35.4,52.5 32.6,50.8 32.6,54.1 35.4,55.7 	"/>
	<polygon class="st39" points="29.8,49.2 26.9,47.6 26.9,50.8 29.8,52.5 	"/>
</g>
<polygon class="st37" points="60.2,87.3 83.3,73.9 83.3,68.3 60.2,81.7 "/>
<polygon class="st38" points="83.3,68.3 110,83.7 110,89.3 83.3,73.9 "/>
<polygon class="st37" points="110,83.7 137.6,67.9 137.6,73.5 110,89.3 "/>
<polygon class="st38" points="9.5,52.4 9.5,58 60.2,87.3 60.2,81.7 "/>
<line class="st1" x1="9.5" y1="58" x2="59.7" y2="199.6"/>
</svg>
